<svg width="30" height="30" viewBox="0 0 30 30" fill="none" xmlns="http://www.w3.org/2000/svg">
<path d="M1.5 7.5V1.5L7.5 4.5L1.5 7.5ZM24 7.5V1.5L30 4.5L24 7.5ZM13.5 6V0L19.5 3L13.5 6ZM10.5 29.8125C9.2 29.6875 7.925 29.5 6.675 29.25C5.425 29 4.30625 28.6937 3.31875 28.3312C2.33125 27.9688 1.53125 27.55 0.91875 27.075C0.30625 26.6 0 26.075 0 25.5V12C0 11.375 0.39375 10.7938 1.18125 10.2563C1.96875 9.71875 3.0375 9.24375 4.3875 8.83125C5.7375 8.41875 7.325 8.09375 9.15 7.85625C10.975 7.61875 12.925 7.5 15 7.5C17.075 7.5 19.025 7.61875 20.85 7.85625C22.675 8.09375 24.2625 8.41875 25.6125 8.83125C26.9625 9.24375 28.0312 9.71875 28.8188 10.2563C29.6063 10.7938 30 11.375 30 12V25.5C30 26.075 29.6937 26.6 29.0812 27.075C28.4688 27.55 27.6687 27.9688 26.6812 28.3312C25.6938 28.6937 24.575 29 23.325 29.25C22.075 29.5 20.8 29.6875 19.5 29.8125V22.5H10.5V29.8125ZM15 13.5C17.425 13.5 19.5187 13.3563 21.2812 13.0688C23.0438 12.7812 24.45 12.45 25.5 12.075C25.5 11.95 24.55 11.6562 22.65 11.1938C20.75 10.7313 18.2 10.5 15 10.5C11.8 10.5 9.25 10.7313 7.35 11.1938C5.45 11.6562 4.5 11.95 4.5 12.075C5.55 12.45 6.95625 12.7812 8.71875 13.0688C10.4812 13.3563 12.575 13.5 15 13.5Z" fill="#FFD700"/>
</svg>
