<svg width="23" height="23" viewBox="0 0 23 23" fill="none" xmlns="http://www.w3.org/2000/svg">
<path d="M14.375 10.9375C14.8125 10.9375 15.1823 10.7865 15.4844 10.4844C15.7865 10.1823 15.9375 9.8125 15.9375 9.375C15.9375 8.9375 15.7865 8.56771 15.4844 8.26562C15.1823 7.96354 14.8125 7.8125 14.375 7.8125C13.9375 7.8125 13.5677 7.96354 13.2656 8.26562C12.9635 8.56771 12.8125 8.9375 12.8125 9.375C12.8125 9.8125 12.9635 10.1823 13.2656 10.4844C13.5677 10.7865 13.9375 10.9375 14.375 10.9375ZM8.125 10.9375C8.5625 10.9375 8.93229 10.7865 9.23438 10.4844C9.53646 10.1823 9.6875 9.8125 9.6875 9.375C9.6875 8.9375 9.53646 8.56771 9.23438 8.26562C8.93229 7.96354 8.5625 7.8125 8.125 7.8125C7.6875 7.8125 7.31771 7.96354 7.01562 8.26562C6.71354 8.56771 6.5625 8.9375 6.5625 9.375C6.5625 9.8125 6.71354 10.1823 7.01562 10.4844C7.31771 10.7865 7.6875 10.9375 8.125 10.9375ZM11.25 17.5C12.5 17.5 13.6302 17.1562 14.6406 16.4688C15.651 15.7812 16.3958 14.875 16.875 13.75H5.625C6.10417 14.875 6.84896 15.7812 7.85938 16.4688C8.86979 17.1562 10 17.5 11.25 17.5ZM11.25 22.5C9.6875 22.5 8.22396 22.2031 6.85938 21.6094C5.49479 21.0156 4.30729 20.2135 3.29688 19.2031C2.28646 18.1927 1.48438 17.0052 0.890625 15.6406C0.296875 14.276 0 12.8125 0 11.25C0 9.6875 0.296875 8.22396 0.890625 6.85938C1.48438 5.49479 2.28646 4.30729 3.29688 3.29688C4.30729 2.28646 5.49479 1.48438 6.85938 0.890625C8.22396 0.296875 9.6875 0 11.25 0C12.8125 0 14.276 0.296875 15.6406 0.890625C17.0052 1.48438 18.1927 2.28646 19.2031 3.29688C20.2135 4.30729 21.0156 5.49479 21.6094 6.85938C22.2031 8.22396 22.5 9.6875 22.5 11.25C22.5 12.8125 22.2031 14.276 21.6094 15.6406C21.0156 17.0052 20.2135 18.1927 19.2031 19.2031C18.1927 20.2135 17.0052 21.0156 15.6406 21.6094C14.276 22.2031 12.8125 22.5 11.25 22.5ZM11.75 6.875C12.1042 6.875 12.5052 6.80729 12.9531 6.67188C13.401 6.53646 13.625 6.22917 13.625 5.75C13.625 5.5 13.5417 5.28125 13.375 5.09375C13.2083 4.90625 13 4.8125 12.75 4.8125C12.5833 4.8125 12.4219 4.84375 12.2656 4.90625C12.1094 4.96875 11.9375 5 11.75 5C11.3125 5 10.9427 4.84896 10.6406 4.54688C10.3385 4.24479 10.1875 3.875 10.1875 3.4375C10.1875 3.20833 10.224 3.01562 10.2969 2.85938C10.3698 2.70312 10.4792 2.59375 10.625 2.53125C10.2292 2.57292 9.84375 2.625 9.46875 2.6875C9.09375 2.75 8.72917 2.85417 8.375 3C8.35417 3.0625 8.33854 3.13542 8.32812 3.21875C8.31771 3.30208 8.3125 3.375 8.3125 3.4375C8.3125 4.375 8.65104 5.18229 9.32812 5.85938C10.0052 6.53646 10.8125 6.875 11.75 6.875Z" fill="#D0C6AB"/>
</svg>
